<svg xmlns="http://www.w3.org/2000/svg" width="33.332" height="39.4" viewBox="0 0 33.332 39.4">
  <g id="bookmark-white" transform="translate(-33.261)">
    <path id="Path_13" data-name="Path 13" d="M66.086,1.3A2.936,2.936,0,0,0,64.719.235,2.883,2.883,0,0,0,63.573,0H36.282a2.882,2.882,0,0,0-1.146.234A2.934,2.934,0,0,0,33.769,1.3a2.763,2.763,0,0,0-.508,1.615V36.483a2.765,2.765,0,0,0,.508,1.615,2.933,2.933,0,0,0,1.367,1.068,2.88,2.88,0,0,0,1.146.234,3.106,3.106,0,0,0,2.161-.859L49.927,27.5,61.411,38.541a3.1,3.1,0,0,0,2.161.832A3.03,3.03,0,0,0,66.086,38.1a2.762,2.762,0,0,0,.507-1.614V2.917A2.765,2.765,0,0,0,66.086,1.3ZM63.26,35.676,52.245,25.1,49.927,22.89,47.61,25.1,36.595,35.676V3.334H63.26V35.676Z" fill="rgba(255,182,153,0.98)"/>
  </g>
</svg>
