<svg xmlns="http://www.w3.org/2000/svg" width="52.555" height="50.461" viewBox="0 0 52.555 50.461">
  <g id="notes" transform="translate(-598 -342)">
    <rect id="Rectangle_4" data-name="Rectangle 4" width="9.14" height="2.847" rx="0.79" transform="translate(606.277 381.676)" fill="rgba(255,182,153,0.98)"/>
    <rect id="Rectangle_5" data-name="Rectangle 5" width="26.34" height="2.847" rx="0.79" transform="translate(603.693 357.869)" fill="rgba(255,182,153,0.98)"/>
    <rect id="Rectangle_6" data-name="Rectangle 6" width="26.34" height="2.847" rx="0.79" transform="translate(603.693 349.937)" fill="rgba(255,182,153,0.98)"/>
    <path id="Path_6" data-name="Path 6" d="M76.656,28.91a2.982,2.982,0,0,0-4.9,0L52.41,53.364l4.9,6.192L76.656,35.1A5.228,5.228,0,0,0,76.656,28.91Z" transform="translate(572.884 323.227)" fill="rgba(255,182,153,0.98)"/>
    <path id="Path_7" data-name="Path 7" d="M32.134,64.312l2.758-2.642H19.679a.46.46,0,0,0-.469.45v1.942a.465.465,0,0,0,.469.456H32.086Z" transform="translate(585.254 312.074)" fill="rgba(255,182,153,0.98)"/>
    <path id="Path_8" data-name="Path 8" d="M43.284,47.5H19.679a.46.46,0,0,0-.469.45V49.9a.46.46,0,0,0,.469.45h20.64Z" transform="translate(584.691 318.307)" fill="rgba(255,182,153,0.98)"/>
    <path id="Path_9" data-name="Path 9" d="M44.473,38.708v13.95H7.909V7.8H44.473V21.512l2.909-2.8V7.119A2.16,2.16,0,0,0,45.183,5H7.2A2.16,2.16,0,0,0,5,7.119V53.341a2.16,2.16,0,0,0,2.2,2.119H45.183a2.16,2.16,0,0,0,2.2-2.119V35.9Z" transform="translate(593 337)" fill="rgba(255,182,153,0.98)"/>
    <path id="Path_10" data-name="Path 10" d="M47.483,64.49l-2.2,2.113a1.378,1.378,0,0,0-.4.74L44,72.087a.378.378,0,0,0,.112.343.414.414,0,0,0,.357.107l4.946-.843a1.516,1.516,0,0,0,.771-.387l2.2-2.113Z" transform="translate(576.711 310.767)" fill="rgba(255,182,153,0.98)"/>
  </g>
</svg>
